<?xml version="1.0" standalone="no"?>
<!DOCTYPE svg PUBLIC "-//W3C//DTD SVG 20010904//EN"
 "http://www.w3.org/TR/2001/REC-SVG-20010904/DTD/svg10.dtd">
<svg version="1.0" xmlns="http://www.w3.org/2000/svg"
 width="220.000000pt" height="220.000000pt" viewBox="0 0 220.000000 220.000000"
 preserveAspectRatio="xMidYMid meet">
<metadata>
Created by potrace 1.14, written by Peter Selinger 2001-2017
</metadata>
<g transform="translate(0.000000,220.000000) scale(0.100000,-0.100000)"
fill="#000000" stroke="none">
<path d="M740 1812 c-154 -51 -286 -194 -306 -332 -3 -25 -22 -84 -41 -132
-77 -197 -82 -390 -14 -569 16 -41 16 -51 5 -79 -8 -18 -14 -57 -14 -88 0 -51
3 -58 40 -93 41 -40 91 -56 134 -45 19 5 41 -6 98 -46 85 -61 186 -110 278
-134 93 -25 270 -23 371 4 263 70 471 266 547 514 48 156 48 304 0 466 -20 70
-20 75 -5 102 21 36 22 102 1 146 -20 42 -83 74 -148 74 -42 0 -54 5 -99 45
-65 57 -210 129 -302 151 -38 9 -124 18 -190 20 -66 1 -160 5 -210 9 -71 4
-101 1 -145 -13z m370 -196 c137 -4 209 -22 306 -77 86 -49 86 -54 -3 -74
-154 -34 -339 -115 -457 -199 -90 -64 -256 -242 -330 -353 l-65 -97 -11 30
c-6 16 -16 66 -22 111 -14 104 7 225 58 328 18 39 34 86 34 105 1 84 87 198
169 224 63 20 88 23 146 13 28 -5 106 -10 175 -11z m550 -341 c76 -159 75
-366 -3 -520 -26 -52 -76 -125 -85 -125 -5 0 -18 21 -30 46 -13 26 -39 72 -59
103 -31 48 -36 63 -34 108 3 59 -14 99 -59 137 -68 57 -159 54 -224 -7 -112
-106 -33 -292 124 -290 45 1 47 0 82 -56 40 -61 68 -121 68 -146 0 -20 -87
-62 -178 -86 -195 -50 -400 5 -554 150 l-60 57 36 73 c129 254 318 430 589
543 93 40 240 77 304 78 l52 0 31 -65z"/>
<path d="M1992 1410 c0 -8 4 -26 8 -40 6 -20 8 -21 8 -5 0 11 -3 29 -8 40 -5
12 -8 14 -8 5z"/>
<path d="M2014 1320 c16 -59 27 -211 21 -285 -32 -391 -309 -733 -676 -835
-339 -94 -676 -3 -938 252 -36 35 -58 54 -51 43 48 -67 257 -245 289 -245 5 0
16 -7 24 -15 18 -18 173 -71 264 -90 156 -33 417 -4 542 61 14 8 31 14 37 14
26 0 194 122 256 186 75 76 113 126 149 194 13 25 30 53 38 63 8 9 11 17 8 17
-3 0 5 24 18 54 29 67 44 132 57 262 9 82 8 121 -6 214 -9 63 -21 119 -28 125
-8 7 -9 3 -4 -15z"/>
</g>
</svg>
